<svg 
 xmlns="http://www.w3.org/2000/svg"
 xmlns:xlink="http://www.w3.org/1999/xlink"
 width="72px" height="63px">
<path fill-rule="evenodd"  fill="rgb(230, 230, 230)"
 d="M68.554,44.278 C66.651,44.278 65.108,42.748 65.108,40.861 C65.108,38.974 66.651,37.444 68.554,37.444 C70.458,37.444 72.000,38.974 72.000,40.861 C72.000,42.748 70.458,44.278 68.554,44.278 ZM68.554,25.556 C66.651,25.556 65.108,24.026 65.108,22.139 C65.108,20.252 66.651,18.722 68.554,18.722 C70.458,18.722 72.000,20.252 72.000,22.139 C72.000,24.026 70.458,25.556 68.554,25.556 ZM68.554,6.834 C66.651,6.834 65.108,5.304 65.108,3.417 C65.108,1.529 66.651,-0.000 68.554,-0.000 C70.458,-0.000 72.000,1.529 72.000,3.417 C72.000,5.304 70.458,6.834 68.554,6.834 ZM46.851,63.000 C44.948,63.000 43.406,61.470 43.406,59.583 C43.406,57.696 44.948,56.166 46.851,56.166 C48.754,56.166 50.297,57.696 50.297,59.583 C50.297,61.470 48.754,63.000 46.851,63.000 ZM46.851,44.278 C44.948,44.278 43.406,42.748 43.406,40.861 C43.406,38.974 44.948,37.444 46.851,37.444 C48.754,37.444 50.297,38.974 50.297,40.861 C50.297,42.748 48.754,44.278 46.851,44.278 ZM46.851,25.556 C44.948,25.556 43.406,24.026 43.406,22.139 C43.406,20.252 44.948,18.722 46.851,18.722 C48.754,18.722 50.297,20.252 50.297,22.139 C50.297,24.026 48.754,25.556 46.851,25.556 ZM46.851,6.834 C44.948,6.834 43.406,5.304 43.406,3.417 C43.406,1.529 44.948,-0.000 46.851,-0.000 C48.754,-0.000 50.297,1.529 50.297,3.417 C50.297,5.304 48.754,6.834 46.851,6.834 ZM25.148,63.000 C23.245,63.000 21.702,61.470 21.702,59.583 C21.702,57.696 23.245,56.166 25.148,56.166 C27.052,56.166 28.594,57.696 28.594,59.583 C28.594,61.470 27.052,63.000 25.148,63.000 ZM25.148,44.278 C23.245,44.278 21.702,42.748 21.702,40.861 C21.702,38.974 23.245,37.444 25.148,37.444 C27.052,37.444 28.594,38.974 28.594,40.861 C28.594,42.748 27.052,44.278 25.148,44.278 ZM25.148,25.556 C23.245,25.556 21.702,24.026 21.702,22.139 C21.702,20.252 23.245,18.722 25.148,18.722 C27.052,18.722 28.594,20.252 28.594,22.139 C28.594,24.026 27.052,25.556 25.148,25.556 ZM25.148,6.834 C23.245,6.834 21.702,5.304 21.702,3.417 C21.702,1.529 23.245,-0.000 25.148,-0.000 C27.052,-0.000 28.594,1.529 28.594,3.417 C28.594,5.304 27.052,6.834 25.148,6.834 ZM3.446,63.000 C1.542,63.000 -0.000,61.470 -0.000,59.583 C-0.000,57.696 1.542,56.166 3.446,56.166 C5.349,56.166 6.892,57.696 6.892,59.583 C6.892,61.470 5.349,63.000 3.446,63.000 ZM3.446,44.278 C1.542,44.278 -0.000,42.748 -0.000,40.861 C-0.000,38.974 1.542,37.444 3.446,37.444 C5.349,37.444 6.892,38.974 6.892,40.861 C6.892,42.748 5.349,44.278 3.446,44.278 ZM3.446,25.556 C1.542,25.556 -0.000,24.026 -0.000,22.139 C-0.000,20.252 1.542,18.722 3.446,18.722 C5.349,18.722 6.892,20.252 6.892,22.139 C6.892,24.026 5.349,25.556 3.446,25.556 ZM3.446,6.834 C1.542,6.834 -0.000,5.304 -0.000,3.417 C-0.000,1.529 1.542,-0.000 3.446,-0.000 C5.349,-0.000 6.892,1.529 6.892,3.417 C6.892,5.304 5.349,6.834 3.446,6.834 ZM68.554,56.166 C70.458,56.166 72.000,57.696 72.000,59.583 C72.000,61.470 70.458,63.000 68.554,63.000 C66.651,63.000 65.108,61.470 65.108,59.583 C65.108,57.696 66.651,56.166 68.554,56.166 Z"/>
</svg>