<svg 
 xmlns="http://www.w3.org/2000/svg"
 xmlns:xlink="http://www.w3.org/1999/xlink"
 width="30px" height="30px">
<path fill-rule="evenodd"  fill="rgb(255, 255, 255)"
 d="M20.900,17.801 C24.573,12.716 23.345,5.675 18.158,2.075 C12.971,-1.526 5.789,-0.322 2.116,4.764 C-1.556,9.849 -0.328,16.890 4.859,20.490 C8.561,23.059 13.456,23.257 17.361,20.997 L25.846,29.265 C26.762,30.211 28.286,30.248 29.250,29.350 C30.215,28.453 30.253,26.959 29.338,26.013 C29.309,25.983 29.281,25.955 29.250,25.927 L20.900,17.801 ZM11.501,18.572 C7.402,18.573 4.079,15.318 4.077,11.300 C4.076,7.281 7.396,4.023 11.496,4.021 C15.589,4.020 18.911,7.270 18.919,11.283 C18.926,15.302 15.607,18.566 11.506,18.572 C11.505,18.572 11.504,18.572 11.501,18.572 Z"/>
</svg>